<?xml version="1.0" encoding="utf-8"?>
<!-- Generator: Adobe Illustrator 18.1.1, SVG Export Plug-In . SVG Version: 6.00 Build 0)  -->
<svg version="1.1" id="Layer_1" xmlns="http://www.w3.org/2000/svg" xmlns:xlink="http://www.w3.org/1999/xlink" x="0px" y="0px"
	 viewBox="0 0 300 300" enable-background="new 0 0 300 300" xml:space="preserve">
<g>
	<path fill="none" stroke="#3B426B" stroke-width="2" stroke-miterlimit="10" d="M272.2,78.7V67.6c0-4-3.6-7.2-8-7.2H98.2V55
		c0-4.4-3.6-8-8-8H64.6c-4.4,0-8,3.6-8,8v5.3H31.9c-4.4,0-8,3.2-8,7.2v15"/>
	
		<line fill="none" stroke="#3B426B" stroke-width="2" stroke-linecap="round" stroke-linejoin="round" stroke-miterlimit="10" x1="253.9" y1="250.3" x2="263.6" y2="242.5"/>
	<g>
		<g>
			<line fill="#CCCCCC" stroke="#3B426B" stroke-width="2" stroke-miterlimit="10" x1="263.6" y1="70.1" x2="292.3" y2="98.8"/>
			<path fill="none" stroke="#3B426B" stroke-width="2" stroke-miterlimit="10" d="M256.2,242.1H285c4,0,7.3-3.3,7.3-7.3v-136
				l-28.7-28.7H71.3c-4,0-7.3,3.3-7.3,7.3v5.2"/>
			<path fill="none" stroke="#3B426B" stroke-width="2" stroke-miterlimit="10" d="M263,70.1v21.3c0,4,3.3,7.3,7.3,7.3h21.3"/>
		</g>
	</g>
	<path fill="none" stroke="#3B426B" stroke-width="2" stroke-miterlimit="10" d="M15.8,252.5c-4.4,0-8-3.2-8-7.2V89.8
		c0-4,3.6-7.2,8-7.2h232.4c4.4,0,8,3.2,8,7.2v155.4c0,4-3.6,7.2-8,7.2H15.8z"/>
	<path fill="none" stroke="#3B426B" stroke-width="2" stroke-miterlimit="10" d="M15.8,252.5c-4.4,0-8-3.2-8-7.2V89.8
		c0-4,3.6-7.2,8-7.2h232.4c4.4,0,8,3.2,8,7.2v155.4c0,4-3.6,7.2-8,7.2H15.8z"/>
	<path fill="none" stroke="#3B426B" stroke-width="2" stroke-miterlimit="10" d="M234.4,123.9c0,4.4-3.6,8-8,8h-68.6
		c-4.4,0-8-3.6-8-8v-15.9c0-4.4,3.6-8,8-8h68.6c4.4,0,8,3.6,8,8V123.9z"/>
</g>
</svg>
