<?xml version="1.0" encoding="utf-8"?>
<!-- Generator: Adobe Illustrator 18.1.1, SVG Export Plug-In . SVG Version: 6.00 Build 0)  -->
<svg version="1.1" id="Layer_1" xmlns="http://www.w3.org/2000/svg" xmlns:xlink="http://www.w3.org/1999/xlink" x="0px" y="0px"
	 viewBox="0 0 300 300" enable-background="new 0 0 300 300" xml:space="preserve">
<g>
	<path fill="none" stroke="#3B426B" stroke-width="2" stroke-miterlimit="10" d="M196.1,233.5c-0.8,5.8-6.2,9.9-12,9.1l0,0
		c-5.8-0.8-9.9-6.2-9.1-12l27-193.8c0.8-5.8,6.2-9.9,12-9.1l0,0c5.8,0.8,9.9,6.2,9.1,12L196.1,233.5z"/>
	<g>
		<line fill="none" stroke="#3B426B" stroke-width="2" stroke-miterlimit="10" x1="199.6" y1="53.2" x2="112.2" y2="78.5"/>
		<line fill="none" stroke="#3B426B" stroke-width="2" stroke-miterlimit="10" x1="115" y1="55.6" x2="207.8" y2="28.7"/>
		<path fill="none" stroke="#3B426B" stroke-width="2" stroke-miterlimit="10" d="M125.8,30.7c0,0-6.2-3.9-14.7-9.3
			c-8.5-5.4-14.7-9.3-14.7-9.3C66.1,60.2,41.1,37.9,17.9,74.7c6.6,4.2,25.4,16,42.6,26.9c17.2,10.9,36,22.7,42.6,26.9
			C126.3,91.7,95.4,78.8,125.8,30.7z"/>
	</g>
	<g>
		<path fill="none" stroke="#3B426B" stroke-width="2" stroke-miterlimit="10" d="M186.2,255.7c-35.9,0-69,12.1-95.4,32.5h190.8
			C255.2,267.8,222.1,255.7,186.2,255.7z"/>
	</g>
	<line fill="none" stroke="#3B426B" stroke-width="2" stroke-miterlimit="10" x1="178.1" y1="239.6" x2="178.1" y2="255.7"/>
	<line fill="none" stroke="#3B426B" stroke-width="2" stroke-miterlimit="10" x1="190.8" y1="241.4" x2="190.8" y2="254.7"/>
	<line fill="none" stroke="#3B426B" stroke-width="2" stroke-miterlimit="10" x1="25.6" y1="159.2" x2="51.4" y2="114.8"/>
	<line fill="none" stroke="#3B426B" stroke-width="2" stroke-miterlimit="10" x1="61.2" y1="120.4" x2="63.6" y2="142.2"/>
	<line fill="none" stroke="#3B426B" stroke-width="2" stroke-miterlimit="10" x1="19.9" y1="122.3" x2="43.7" y2="107.5"/>
	<circle fill="none" stroke="#3B426B" stroke-width="2" stroke-miterlimit="10" cx="213.1" cy="38.8" r="5"/>
	<circle fill="none" stroke="#3B426B" stroke-width="2" stroke-miterlimit="10" cx="185.6" cy="228.4" r="5"/>
</g>
</svg>
