<?xml version="1.0" encoding="utf-8"?>
<!-- Generator: Adobe Illustrator 18.1.1, SVG Export Plug-In . SVG Version: 6.00 Build 0)  -->
<svg version="1.1" id="Layer_1" xmlns="http://www.w3.org/2000/svg" xmlns:xlink="http://www.w3.org/1999/xlink" x="0px" y="0px"
	 viewBox="0 0 300 300" style="enable-background:new 0 0 300 300;" xml:space="preserve">
<style type="text/css">
	.special{fill:none;stroke:#3B426B;stroke-width:2;stroke-linecap:round;stroke-linejoin:round;stroke-miterlimit:10;}
	.st0{fill:none;stroke:#3B426B;stroke-width:1.8165;stroke-miterlimit:10;}
	.st1{fill:none;stroke:#3B426B;stroke-width:2;stroke-miterlimit:10;}
	.st2{fill:none;stroke:#3B426B;stroke-width:2;stroke-linecap:round;stroke-linejoin:round;stroke-miterlimit:10;}
</style>
<g>
	<path class="special" d="M200.8,265.9c0,5.2-4.2,9.4-9.4,9.4H61.9c-5.2,0-9.4-4.2-9.4-9.4V121.5c0-5.2,4.2-9.4,9.4-9.4h129.5
		c5.2,0,9.4,4.2,9.4,9.4V265.9z"/>
	<path class="st0" d="M199.7,136.6h15.8c18.8,0,34,15.2,34,34v45.2c0,18.8-15.2,34-34,34h-15.8"/>
	<path class="st0" d="M201.3,155.5h11.5c9.4,0,17,7.6,17,17v41.4c0,9.4-7.6,17-17,17h-11.5"/>
	<path class="st1" d="M208.2,151.7"/>
	<path class="st1" d="M200.8,153.2"/>
	<path id="humo_2_" class="special" d="M147.7,92.7c31.8-34-20.3-38.5,9.9-68"/>
	<path id="humo_1_" class="special" d="M123.4,92.7c31.8-34-20.3-38.5,9.9-68"/>
	<path id="humo" class="special" d="M97.2,92.7c31.8-34-20.3-38.5,9.9-68"/>
	<path class="st2" d="M162,161.1c-15.1-16.6-35.3,0.4-35.3,15.8c0-15.4-20.2-32.4-35.3-15.8c-14.6,16.1-3.9,27.8,33.4,69.6
		c1.6,1.8,2,1.8,3.6,0C165.8,188.9,176.5,177.2,162,161.1z"/>
</g>
</svg>
