<?xml version="1.0" encoding="utf-8"?>
<!-- Generator: Adobe Illustrator 18.1.1, SVG Export Plug-In . SVG Version: 6.00 Build 0)  -->
<svg version="1.1" id="Layer_1" xmlns="http://www.w3.org/2000/svg" xmlns:xlink="http://www.w3.org/1999/xlink" x="0px" y="0px"
	 viewBox="0 0 300 300" enable-background="new 0 0 300 300" xml:space="preserve">
<g>
	<path fill="none" stroke="#3B426B" stroke-width="2" stroke-miterlimit="10" d="M281.2,249.5c0,3.8-3.1,7-7,7H27.6
		c-3.8,0-7-3.1-7-7V81.8c0-3.8,3.1-7,7-7h246.6c3.8,0,7,3.1,7,7V249.5z"/>
	<path fill="none" stroke="#3B426B" stroke-width="2" stroke-miterlimit="10" d="M150.9,110.9"/>
	<g>
		<g>
			<g>
				<path fill="none" stroke="#3B426B" stroke-width="2" stroke-miterlimit="10" d="M46,73.7c0-2.2,1.8-4,4-4h5c2.2,0,4,1.8,4,4"/>
			</g>
		</g>
		<path fill="none" stroke="#3B426B" stroke-width="2" stroke-miterlimit="10" d="M242.8,73.7c0-2.2,1.8-4,4-4h5c2.2,0,4,1.8,4,4"/>
		<path fill="none" stroke="#3B426B" stroke-width="2" stroke-miterlimit="10" d="M162.6,178.3v7.2c0,2.2-1.8,4-4,4h-13.4
			c-2.2,0-4-1.8-4-4v-7.2"/>
	</g>
	<path fill="none" stroke="#3B426B" stroke-width="2" stroke-miterlimit="10" d="M150.9,164.5"/>
	<path fill="none" stroke="#3B426B" stroke-width="2" stroke-miterlimit="10" d="M150.9,164.5"/>
	<path fill="none" stroke="#3B426B" stroke-width="2" stroke-miterlimit="10" d="M150.9,164.5"/>
	<path fill="none" stroke="#3B426B" stroke-width="2" stroke-miterlimit="10" d="M150.9,164.8"/>
	<g>
		<path fill="none" stroke="#3B426B" stroke-width="2" stroke-miterlimit="10" d="M119.5,74.1V64.1c0-4.7,3.8-8.5,8.5-8.5h45.7
			c4.7,0,8.5,3.8,8.5,8.5v10.1"/>
		<path fill="none" stroke="#3B426B" stroke-width="2" stroke-miterlimit="10" d="M106.3,74.1L106.3,74.1
			c0-17.5,14.2-31.6,31.6-31.6h25.9c17.5,0,31.6,14.1,31.6,31.6"/>
	</g>
	<path fill="none" stroke="#3B426B" stroke-width="2" stroke-miterlimit="10" d="M223.3,102.7v68.6c0,3.8-3.1,7-7,7H90.4
		c-3.8,0-7-3.1-7-7v-68.6"/>
</g>
</svg>
