<?xml version="1.0" encoding="utf-8"?>
<!-- Generator: Adobe Illustrator 18.1.1, SVG Export Plug-In . SVG Version: 6.00 Build 0)  -->
<svg version="1.1" id="Layer_1" xmlns="http://www.w3.org/2000/svg" xmlns:xlink="http://www.w3.org/1999/xlink" x="0px" y="0px"
	 viewBox="0 0 221.3 274.6" enable-background="new 0 0 221.3 274.6" xml:space="preserve">
<g>
	<path fill="none" stroke="#3B426B" stroke-width="2" stroke-miterlimit="10" d="M166.8,251.9c0,5.2-4.2,9.4-9.4,9.4H27.9
		c-5.2,0-9.4-4.2-9.4-9.4V107.5c0-5.2,4.2-9.4,9.4-9.4h129.5c5.2,0,9.4,4.2,9.4,9.4V251.9z"/>
	<path fill="none" stroke="#3B426B" stroke-width="1.8165" stroke-miterlimit="10" d="M165.7,122.6h15.8c18.8,0,34,15.2,34,34v45.2
		c0,18.8-15.2,34-34,34h-15.8"/>
	<path fill="none" stroke="#3B426B" stroke-width="1.8165" stroke-miterlimit="10" d="M167.3,141.5h11.5c9.4,0,17,7.6,17,17v41.4
		c0,9.4-7.6,17-17,17h-11.5"/>
	<path fill="none" stroke="#3B426B" stroke-width="2" stroke-miterlimit="10" d="M174.2,137.7"/>
	<path fill="none" stroke="#3B426B" stroke-width="2" stroke-miterlimit="10" d="M166.8,139.2"/>
	<path fill="none" stroke="#3B426B" stroke-width="1.8165" stroke-miterlimit="10" d="M113.7,78.7c31.8-34-20.3-38.5,9.9-68"/>
	<path fill="none" stroke="#3B426B" stroke-width="1.8165" stroke-miterlimit="10" d="M89.4,78.7c31.8-34-20.3-38.5,9.9-68"/>
	<path fill="none" stroke="#3B426B" stroke-width="1.8165" stroke-miterlimit="10" d="M63.2,78.7c31.8-34-20.3-38.5,9.9-68"/>
	<path fill="none" stroke="#3B426B" stroke-width="2" stroke-linecap="round" stroke-linejoin="round" stroke-miterlimit="10" d="
		M128,147.1c-15.1-16.6-35.3,0.4-35.3,15.8c0-15.4-20.2-32.4-35.3-15.8c-14.6,16.1-3.9,27.8,33.4,69.6c1.6,1.8,2,1.8,3.6,0
		C131.8,174.9,142.5,163.2,128,147.1z"/>
</g>
</svg>
